# xmcd
#
# Track frame offsets:
#	150
#	19380
#	34329
#	48759
#	64679
#	80347
#	96204
#	112268
#	127588
#	146665
#
# Disc length: 2155 seconds
#
# Revision: 0
# Processed by: cddbd v1.5.2PL0 Copyright (c) Steve Scherf et al.
# Submitted via: EZCDAudioConverter 1.3.4.1
#
DISCID=8308690a
DTITLE=David Oliver - Rain Fire
DYEAR=2012
DGENRE=Soul
TTITLE0=Could It Be Love
TTITLE1=Summer Love
TTITLE2=Don't You Ever Be Lonely
TTITLE3=I Keep Looking For A Better Way
TTITLE4=Rusty O'Halo
TTITLE5=Never Seen A Girl Like You
TTITLE6=Puppets on String
TTITLE7=Private Tonight
TTITLE8=I Remember You When
TTITLE9=Spinnin' 'Round In Circles
EXTD=
EXTT0=
EXTT1=
EXTT2=
EXTT3=
EXTT4=
EXTT5=
EXTT6=
EXTT7=
EXTT8=
EXTT9=
PLAYORDER=
